<svg width="256" height="256" viewBox="0 0 256 256" fill="none" xmlns="http://www.w3.org/2000/svg">
<path d="M171.762 178.16C135.647 183.136 108.098 213.215 103.181 227.627C103.062 227.978 103.159 228.347 103.429 228.601C109.08 233.943 124.25 242.59 143.365 237.402C162.54 232.197 170.913 197.224 172.874 179.227C172.943 178.592 172.395 178.073 171.762 178.16Z" fill="url(#paint0_linear_413_289)"/>
<path d="M221 84.3647V64.507C221 64.1505 220.81 63.8209 220.502 63.642L128.502 10.2909C128.191 10.111 127.809 10.111 127.498 10.2909L35.4983 63.642C35.1899 63.8209 35 64.1505 35 64.507V201.133C35 231.852 66.9688 242 105.473 242M105.473 242C105.473 242 148.344 242 174.5 242C200.656 242 221 231.852 221 201.133C221 173.296 221 138.382 221 132.074C221 131.522 220.585 131.074 220.033 131.074C212.81 131.074 167.055 131.074 148.344 131.074C128 131.074 81.5 163.184 105.473 242Z" stroke="url(#paint1_linear_413_289)" stroke-width="17" stroke-linecap="round"/>
<defs>
<linearGradient id="paint0_linear_413_289" x1="174.5" y1="178" x2="113.5" y2="235" gradientUnits="userSpaceOnUse">
<stop stop-color="#19AB4E"/>
<stop offset="1" stop-color="#34E910"/>
</linearGradient>
<linearGradient id="paint1_linear_413_289" x1="218.026" y1="242" x2="34.1926" y2="58.9761" gradientUnits="userSpaceOnUse">
<stop stop-color="#26ACB2"/>
<stop offset="1" stop-color="#1CB454"/>
</linearGradient>
</defs>
</svg>
